<?xml version="1.0" encoding="utf-8"?>
<!-- Generator: Adobe Illustrator 25.2.1, SVG Export Plug-In . SVG Version: 6.00 Build 0)  -->
<svg version="1.1" id="Слой_1" xmlns="http://www.w3.org/2000/svg" xmlns:xlink="http://www.w3.org/1999/xlink" x="0px" y="0px"
	 viewBox="0 0 1344 230" style="enable-background:new 0 0 1344 230;" xml:space="preserve">
<style type="text/css">
	.st0{fill:#0073E6;}
	.st1{fill:#FF4F3E;}
	.st2{fill:#FABC22;}
	.st3{fill:#06C92E;}
	.st4{fill:#00C2FC;}
</style>
<path class="st0" d="M539.5,140.7c0,0.7-0.1,1.3-0.4,1.9c-0.2,0.6-0.6,1.2-1.1,1.6c-0.5,0.5-1,0.9-1.6,1.1c-0.6,0.3-1.3,0.4-1.9,0.4
	h-8.6c-0.7,0-1.3-0.1-1.9-0.4c-0.6-0.2-1.2-0.6-1.6-1.1c-0.5-0.5-0.8-1-1.1-1.6c-0.3-0.6-0.4-1.3-0.4-1.9v-22.1
	c0-0.7,0.1-1.3,0.4-1.9c0.3-0.6,0.6-1.2,1.1-1.6c0.5-0.5,1-0.8,1.6-1.1c0.6-0.2,1.3-0.4,1.9-0.4h2.7c1.3-1.7,2.3-3.5,3.1-5.5
	c0.9-2.3,1.7-4.6,2.3-7c0.6-2.6,1.1-5.2,1.6-7.9c0.4-2.7,0.7-5.4,0.9-8.2l0.5-7.9c0.1-1.4,0.7-2.7,1.7-3.6c0.5-0.5,1.1-0.9,1.7-1.1
	c0.6-0.3,1.3-0.4,2-0.4h37.6c0.7,0,1.3,0.1,2,0.4c0.6,0.3,1.2,0.6,1.7,1.1c0.5,0.5,0.8,1,1.1,1.7c0.3,0.6,0.4,1.3,0.4,2v36.5h4.9
	c0.7,0,1.3,0.1,1.9,0.4c0.6,0.2,1.2,0.6,1.6,1.1c0.5,0.5,0.9,1,1.1,1.6s0.4,1.3,0.4,1.9v22.1c0,0.7-0.1,1.3-0.4,1.9
	c-0.2,0.6-0.6,1.2-1.1,1.6c-0.5,0.5-1,0.8-1.6,1.1c-0.6,0.3-1.3,0.4-1.9,0.4h-8.7c-0.7,0-1.3-0.1-1.9-0.4c-0.6-0.2-1.2-0.6-1.6-1.1
	c-0.5-0.5-0.8-1-1.1-1.6c-0.3-0.6-0.4-1.3-0.4-1.9v-8.4h-36.8L539.5,140.7z M564.8,90.9h-9l-0.2,2.4c-0.4,4.3-1.3,8.5-2.5,12.6
	c-0.8,2.7-2,5.3-3.5,7.8h15.2V90.9z"/>
<path class="st0" d="M621.1,109c0.9,2.7,2.8,5,5.3,6.3c2.7,1.4,5.7,2.1,8.8,2c2,0,3.9-0.1,5.9-0.4c1.7-0.3,3.4-0.7,5-1.3
	c0.9-0.3,1.9-0.5,2.9-0.5c1,0,1.9,0.2,2.8,0.7c0.8,0.5,1.5,1.2,1.9,2.1l2,4.3c0.4,0.7,0.6,1.6,0.6,2.4c0,0.9-0.2,1.8-0.6,2.5
	c-0.4,0.8-1.1,1.4-1.8,1.9c-3.3,1.9-6.9,3.3-10.6,4.1c-3.4,0.6-6.8,0.9-10.2,0.9c-4.6,0.1-9.2-0.7-13.5-2.3
	c-3.8-1.4-7.3-3.6-10.2-6.4c-2.9-2.8-5.1-6.3-6.6-10c-1.6-4.2-2.4-8.6-2.4-13c0-4.2,0.8-8.4,2.4-12.3c1.5-3.8,3.7-7.3,6.6-10.2
	c2.9-3,6.4-5.3,10.2-6.8c4.3-1.7,8.9-2.5,13.5-2.5c3.8,0,7.5,0.7,11,2c3.5,1.3,6.6,3.3,9.3,5.8c2.7,2.5,4.9,5.6,6.4,8.9
	c1.6,3.7,2.5,7.6,2.4,11.7c0,2-0.1,4-0.4,6c-0.2,1.1-0.8,2-1.7,2.8c-0.8,0.8-1.8,1.2-2.9,1.3L621.1,109z M642.1,95.6
	c0-2.2-0.9-4.2-2.5-5.7c-1-0.9-2.1-1.6-3.4-2.1c-1.3-0.4-2.6-0.6-3.9-0.5c-2.7-0.2-5.5,0.5-7.8,2c-1.9,1.6-3.3,3.8-4.1,6.1
	L642.1,95.6z"/>
<path class="st0" d="M690,132.4c-0.7,0-1.3-0.1-1.9-0.4c-0.6-0.2-1.2-0.6-1.6-1.1c-0.5-0.5-0.9-1-1.1-1.6c-0.3-0.6-0.4-1.3-0.4-1.9
	V92.2h-12.3c-0.7,0-1.3-0.1-1.9-0.4c-0.6-0.2-1.2-0.6-1.6-1.1c-0.5-0.5-0.9-1-1.1-1.6c-0.3-0.6-0.4-1.3-0.4-1.9v-10
	c0-0.7,0.1-1.3,0.4-2c0.3-0.6,0.6-1.2,1.1-1.7c0.5-0.5,1-0.8,1.7-1.1c0.6-0.3,1.3-0.4,2-0.4h44.8c0.7,0,1.3,0.1,1.9,0.4
	c0.6,0.3,1.2,0.6,1.7,1.1c0.5,0.5,0.8,1,1.1,1.6c0.3,0.6,0.4,1.3,0.4,1.9v10c0,0.7-0.1,1.3-0.4,1.9c-0.3,0.6-0.6,1.2-1.1,1.7
	s-1,0.8-1.6,1.1c-0.6,0.3-1.3,0.4-1.9,0.4h-12.3v35.1c0,0.7-0.1,1.3-0.4,1.9c-0.2,0.6-0.6,1.2-1.1,1.6c-0.5,0.5-1,0.9-1.6,1.1
	c-0.6,0.3-1.3,0.4-1.9,0.4h-0.1L690,132.4z"/>
<path class="st0" d="M771.3,91.7c-2.8-1.5-6-2.4-9.2-2.4c-1.6,0-3.2,0.3-4.7,0.8c-1.5,0.5-2.9,1.4-4.1,2.5c-1.3,1.1-2.3,2.5-3,4.1
	c-0.8,1.8-1.2,3.7-1.1,5.6c0,1.9,0.4,3.8,1.2,5.5c0.8,1.5,1.8,2.9,3.1,4.1c2.5,2.2,5.7,3.4,9,3.4c3.3-0.1,6.6-1.1,9.4-2.9
	c1.1-0.8,2.4-1.2,3.7-1.2c0.8,0,1.6,0.2,2.3,0.5c0.7,0.4,1.3,0.9,1.8,1.5l4.1,5.5c0.7,0.9,1.1,2.1,1.1,3.2c0,0.8-0.2,1.7-0.5,2.4
	c-0.4,0.7-0.9,1.4-1.6,1.9c-3.3,2.8-7.2,5-11.4,6.3c-3.3,0.9-6.8,1.4-10.2,1.5c-4.7,0.1-9.4-0.7-13.9-2.3c-3.9-1.4-7.5-3.6-10.6-6.4
	c-2.9-2.8-5.2-6.2-6.7-10c-1.6-4.2-2.4-8.6-2.4-13c0-4.2,0.8-8.4,2.3-12.3c1.5-3.8,3.7-7.3,6.6-10.2c2.9-2.9,6.3-5.2,10-6.8
	c4.1-1.7,8.5-2.5,13-2.5c3.6,0,7.3,0.3,10.8,1.1c3.7,0.9,7.1,2.4,10.2,4.6c0.9,0.4,1.6,1.1,2.1,1.9c0.5,0.8,0.8,1.8,0.8,2.7
	c0,0.9-0.3,1.8-0.8,2.6l-3.9,6.4c-0.4,0.8-1.1,1.5-1.9,2c-0.8,0.5-1.7,0.7-2.7,0.7C773.2,92.5,772.2,92.2,771.3,91.7L771.3,91.7z"/>
<path class="st0" d="M816.3,103.5v23.7c0,0.7-0.1,1.3-0.4,1.9c-0.2,0.6-0.6,1.2-1.1,1.6c-0.5,0.5-1,0.9-1.6,1.1
	c-0.6,0.3-1.3,0.4-1.9,0.4h-10c-0.7,0-1.3-0.1-2-0.4c-0.6-0.3-1.2-0.6-1.6-1.1c-0.5-0.5-0.9-1-1.1-1.7c-0.3-0.6-0.4-1.3-0.4-2V77.1
	c0-0.7,0.1-1.3,0.4-1.9c0.2-0.6,0.6-1.2,1.1-1.6c0.5-0.5,1-0.9,1.6-1.1c0.6-0.3,1.3-0.4,1.9-0.4h10c0.7,0,1.3,0.1,2,0.4
	c0.6,0.3,1.2,0.6,1.7,1.1c0.5,0.5,0.8,1,1.1,1.7c0.3,0.6,0.4,1.3,0.4,2v21.2l15.5-22.9c0.7-1,1.7-1.8,2.7-2.4
	c1.1-0.6,2.3-0.9,3.6-0.9h9.4c0.7,0,1.4,0.1,2.1,0.4c0.6,0.3,1.2,0.7,1.7,1.2c0.9,1,1.5,2.3,1.5,3.6c0,1.1-0.4,2.2-1.1,3.1
	l-14.3,18.8l6.6,9c1.7,2.7,4.3,4.7,7.3,5.7c1.6,0.2,3,0.9,4.1,2c0.8,1.3,1.1,2.9,1,4.4v8.2c0,1.1-0.4,2.1-1.2,2.9
	c-0.7,0.9-1.7,1.4-2.8,1.6c-0.7,0-1.4,0.2-2,0.2s-1.3,0-2,0c-1.7,0-3.4-0.2-5-0.5c-1.8-0.4-3.6-1.1-5.2-2c-1.9-1.1-3.7-2.4-5.2-3.9
	c-2-2-3.8-4.2-5.3-6.6L816.3,103.5z"/>
<path class="st0" d="M914.5,132.4c-0.7,0-1.3-0.1-1.9-0.4c-0.6-0.2-1.2-0.6-1.6-1.1c-0.5-0.5-0.8-1-1.1-1.6
	c-0.3-0.6-0.4-1.3-0.4-1.9v-26.6L890.2,129c-0.7,1-1.5,1.8-2.5,2.4c-1,0.6-2.1,1-3.3,0.9h-11.5c-0.7,0-1.3-0.1-2-0.4
	c-0.6-0.3-1.2-0.6-1.6-1.1c-0.5-0.5-0.9-1-1.1-1.7c-0.3-0.6-0.4-1.3-0.4-2V77.1c0-0.7,0.1-1.3,0.4-1.9c0.2-0.6,0.6-1.2,1.1-1.6
	c0.5-0.5,1-0.9,1.6-1.1s1.3-0.4,1.9-0.4h10c0.7,0,1.3,0.1,2,0.4c0.6,0.3,1.2,0.6,1.7,1.1c0.5,0.5,0.8,1,1.1,1.7
	c0.3,0.6,0.4,1.3,0.4,2v26.4l19.2-28.1c0.7-0.9,1.5-1.7,2.4-2.4c0.9-0.6,2.1-1,3.2-0.9h11.7c0.7,0,1.3,0.1,2,0.4
	c0.6,0.3,1.2,0.6,1.7,1.1c0.5,0.5,0.8,1,1.1,1.7c0.3,0.6,0.4,1.3,0.4,2v50.1c0,0.7-0.1,1.3-0.4,1.9c-0.2,0.6-0.6,1.2-1.1,1.6
	c-0.5,0.5-1,0.8-1.6,1.1c-0.6,0.3-1.3,0.4-1.9,0.4h-0.1L914.5,132.4z"/>
<path class="st0" d="M990.8,132.4c-0.7,0-1.3-0.1-1.9-0.4c-0.6-0.2-1.2-0.6-1.6-1.1c-0.5-0.5-0.9-1-1.1-1.6
	c-0.3-0.6-0.4-1.3-0.4-1.9v-26.6L966.6,129c-0.7,1-1.5,1.8-2.5,2.4c-1,0.6-2.1,1-3.3,0.9h-11.5c-0.7,0-1.3-0.1-1.9-0.4
	c-0.6-0.2-1.2-0.6-1.6-1.1c-0.5-0.5-0.8-1-1.1-1.6c-0.3-0.6-0.4-1.3-0.4-1.9V77.2c0-0.7,0.1-1.3,0.4-2c0.3-0.6,0.6-1.2,1.1-1.7
	c0.5-0.5,1-0.8,1.7-1.1c0.6-0.3,1.3-0.4,2-0.4h9.9c0.7,0,1.3,0.1,2,0.4c0.6,0.3,1.2,0.6,1.7,1.1c0.5,0.5,0.9,1,1.1,1.7
	c0.3,0.6,0.4,1.3,0.4,2v26.3l19.2-28.1c0.7-0.9,1.5-1.7,2.4-2.4c0.9-0.6,2.1-1,3.2-0.9h11.7c0.7,0,1.3,0.1,2,0.4
	c0.6,0.3,1.2,0.6,1.7,1.1c0.5,0.5,0.8,1,1.1,1.7c0.2,0.6,0.4,1.3,0.4,2v50.1c0,0.7-0.1,1.3-0.4,1.9c-0.2,0.6-0.6,1.2-1.1,1.6
	c-0.5,0.5-1,0.8-1.6,1.1c-0.6,0.3-1.3,0.4-1.9,0.4h-0.1L990.8,132.4z M987.9,45.7c1.1-0.1,2.3,0.1,3.3,0.5s2,1,2.8,1.8
	c1.4,1.6,2.1,3.8,2,5.9c0,1.8-0.5,3.5-1.5,5.1c-0.9,1.5-2.2,2.8-3.7,3.8c-3.4,2.4-8.5,3.6-15.3,3.6c-7.5,0-12.9-1.2-16.1-3.6
	c-1.5-1-2.7-2.3-3.6-3.8c-0.9-1.5-1.3-3.3-1.3-5c-0.1-2.2,0.7-4.3,2-5.9c0.8-0.8,1.8-1.4,2.8-1.8c1.1-0.4,2.2-0.5,3.3-0.4
	c1.8-0.2,3.6,0.3,5.1,1.4c1.1,1,1.9,2.2,2.3,3.6c0.4,1.1,1,2.1,1.9,3c1,0.9,2.4,1.3,3.7,1.2c0.6,0,1.2,0,1.8-0.2
	c0.6-0.2,1.1-0.5,1.6-0.9c0.8-0.9,1.4-1.9,1.7-3c0.4-1.4,1.2-2.7,2.3-3.6C984.5,46.1,986.2,45.6,987.9,45.7L987.9,45.7z"/>
<path class="st0" d="M1067.4,127.3c0,0.7-0.1,1.3-0.4,1.9c-0.2,0.6-0.6,1.2-1.1,1.6c-0.5,0.5-1,0.8-1.6,1.1
	c-0.6,0.3-1.3,0.4-1.9,0.4h-10.1c-0.7,0-1.3-0.1-1.9-0.4c-0.6-0.2-1.2-0.6-1.6-1.1c-0.5-0.5-0.9-1-1.1-1.6c-0.3-0.6-0.4-1.3-0.4-1.9
	V77.2c0-0.7,0.1-1.3,0.4-2s0.6-1.2,1.1-1.7c0.5-0.5,1-0.8,1.7-1.1c0.6-0.3,1.3-0.4,2-0.4h9.5c1.2,0,2.4,0.3,3.4,0.9
	c1.1,0.5,2,1.3,2.7,2.2l15.4,17.4l14.2-17.3c0.8-0.9,1.7-1.7,2.7-2.4c1-0.6,2.2-0.9,3.3-0.9h9c0.7,0,1.3,0.1,2,0.4
	c0.6,0.3,1.2,0.6,1.7,1.1c0.5,0.5,0.8,1,1.1,1.7s0.4,1.3,0.4,2v50.1c0,0.7-0.1,1.3-0.4,1.9c-0.2,0.6-0.6,1.2-1.1,1.6
	c-0.5,0.5-1,0.8-1.6,1.1c-0.6,0.3-1.3,0.4-1.9,0.4h-10.1c-0.7,0-1.3-0.1-2-0.4c-0.6-0.3-1.2-0.6-1.7-1.1c-0.5-0.5-0.8-1-1.1-1.6
	c-0.3-0.6-0.4-1.3-0.4-1.9v-24.5l-11.3,12.9c-0.4,0.5-1,0.9-1.6,1.2c-0.6,0.3-1.3,0.4-1.9,0.4c-0.6,0-1.3-0.1-1.9-0.4
	c-0.6-0.3-1.1-0.6-1.6-1.1l-11.9-13L1067.4,127.3z"/>
<path class="st0" d="M1179.1,132.4c-0.7,0-1.3-0.1-1.9-0.4c-0.6-0.2-1.2-0.6-1.6-1.1c-0.5-0.5-0.9-1-1.1-1.6
	c-0.3-0.6-0.4-1.3-0.4-1.9v-26.6l-19.2,28.1c-0.7,1-1.5,1.8-2.5,2.4c-1,0.6-2.1,1-3.3,0.9h-11.5c-0.7,0-1.3-0.1-1.9-0.4
	c-0.6-0.2-1.2-0.6-1.6-1.1c-0.5-0.5-0.8-1-1.1-1.6c-0.3-0.6-0.4-1.3-0.4-1.9V77.2c0-0.7,0.1-1.3,0.4-2c0.2-0.6,0.6-1.2,1.1-1.7
	c0.5-0.5,1-0.8,1.7-1.1c0.6-0.3,1.3-0.4,2-0.4h9.9c0.7,0,1.3,0.1,2,0.4c0.6,0.3,1.2,0.6,1.7,1.1c0.5,0.5,0.8,1,1.1,1.7
	c0.3,0.6,0.4,1.3,0.4,2v26.3l19.2-28.1c0.7-0.9,1.6-1.7,2.5-2.3c0.9-0.6,2.1-1,3.2-0.9h11.7c0.7,0,1.3,0.1,2,0.4
	c0.6,0.3,1.2,0.6,1.7,1.1c0.5,0.5,0.8,1,1.1,1.7c0.3,0.6,0.4,1.3,0.4,2v50.1c0,0.7-0.1,1.3-0.4,1.9c-0.2,0.6-0.6,1.2-1.1,1.6
	c-0.5,0.5-1,0.9-1.6,1.1c-0.6,0.3-1.3,0.4-1.9,0.4H1179.1L1179.1,132.4z"/>
<path class="st0" d="M1228.8,154.1c0,0.7-0.1,1.3-0.4,1.9c-0.2,0.6-0.6,1.2-1.1,1.6c-0.5,0.5-1,0.8-1.6,1.1
	c-0.6,0.3-1.3,0.4-1.9,0.4h-10c-0.7,0-1.3-0.1-1.9-0.4c-0.6-0.2-1.2-0.6-1.7-1.1c-0.5-0.5-0.8-1-1.1-1.6c-0.3-0.6-0.4-1.3-0.4-1.9
	v-77c0-0.7,0.1-1.3,0.4-2c0.2-0.6,0.6-1.2,1.1-1.7c0.5-0.5,1-0.8,1.7-1.1c0.6-0.3,1.3-0.4,2-0.4h10.6c0.6,0,1.1,0.1,1.7,0.3
	c0.5,0.2,1,0.5,1.4,0.9c0.4,0.4,0.7,0.9,1,1.4c0.2,0.5,0.3,1.1,0.3,1.7v0.1c2-1.8,4.3-3.2,6.8-4.2c3.2-1.3,6.5-1.9,9.9-1.8
	c3.8,0,7.6,0.7,11.1,2.3c3.3,1.5,6.2,3.7,8.5,6.4c2.4,2.9,4.2,6.2,5.4,9.8c1.3,4,2,8.1,2,12.3c0,4.4-0.8,8.7-2.3,12.8
	c-1.5,3.9-3.7,7.4-6.6,10.4c-2.9,3-6.4,5.4-10.2,7c-4.2,1.8-8.8,2.6-13.3,2.6c-2.1,0-4.1-0.2-6.1-0.5c-1.8-0.2-3.5-0.7-5.2-1.4
	L1228.8,154.1z M1228.8,113c1.3,0.8,2.7,1.4,4.2,1.8c1.7,0.4,3.4,0.5,5.2,0.5c1.8,0.1,3.6-0.1,5.3-0.8c1.7-0.7,3.2-1.8,4.4-3.1
	c2.1-2.7,3.2-6.1,3.1-9.6c0.1-3.2-1-6.3-3-8.8c-1.1-1.2-2.4-2.2-4-2.8c-1.5-0.6-3.2-0.9-4.8-0.8c-2,0.1-4,0.6-5.8,1.5
	c-1.8,0.9-3.4,2.2-4.6,3.8V113z"/>
<path class="st1" d="M116.8,142.9c-21.3,7.7-28.6,0.7-34.8-16.4l-7.9-21.9C66.5,83.3,73.5,76,90.5,69.9l21.9-7.9
	c21.3-7.7,28.6-0.7,34.8,16.4l7.9,21.9c7.7,21.3,0.7,28.6-16.4,34.8L116.8,142.9z"/>
<path class="st2" d="M213.5,142.9c21.3,7.7,28.6,0.7,34.8-16.4l7.9-21.9c7.7-21.3,0.7-28.6-16.4-34.8L217.9,62
	c-21.3-7.7-28.6-0.7-34.8,16.4l-7.9,21.9c-7.7,21.3-0.7,28.6,16.4,34.8L213.5,142.9z"/>
<path class="st3" d="M319,142.9c-21.3,7.7-28.6,0.7-34.8-16.4l-7.9-21.9c-7.7-21.3-0.7-28.6,16.4-34.8l21.9-7.9
	c21.3-7.7,28.6-0.7,34.8,16.4l7.9,21.9c7.7,21.3,0.7,28.6-16.4,34.8L319,142.9z"/>
<path class="st4" d="M415.7,142.9c21.3,7.7,28.6,0.7,34.8-16.4l7.9-21.9C466,83.3,459,76,442,69.9L420.1,62
	c-21.3-7.7-28.6-0.7-34.8,16.4l-7.9,21.9c-7.7,21.3-0.7,28.6,16.4,34.8L415.7,142.9z"/>
</svg>
